<svg xmlns="http://www.w3.org/2000/svg" xmlns:xlink="http://www.w3.org/1999/xlink" viewBox="0 0 844.18 904.23"><defs><style>.cls-1{fill:#261928;}.cls-2{fill:#4c4b4c;}.cls-3{fill:url(#Gradiente_sem_nome_25);}.cls-4{fill:url(#Gradiente_sem_nome_25-2);}.cls-5{fill:#bcaf0f;}.cls-6{fill:url(#Gradiente_sem_nome_88);}.cls-37,.cls-7{fill:#f4e90c;}.cls-8{fill:url(#Gradiente_sem_nome_87);}.cls-9{fill:#8e46b9;}.cls-10{fill:#2c2035;}.cls-11{clip-path:url(#clip-path);}.cls-12{fill:#fff;}.cls-13{fill:url(#Gradiente_sem_nome_37);}.cls-14{fill:#430251;}.cls-15{fill:#bfbfbf;}.cls-16{fill:#432759;}.cls-17{clip-path:url(#clip-path-2);}.cls-18{fill:#673987;}.cls-19{fill:url(#Gradiente_sem_nome_15);}.cls-20{fill:#282828;}.cls-21{fill:url(#Gradiente_sem_nome_14);}.cls-22{fill:url(#Gradiente_sem_nome_36);}.cls-23{clip-path:url(#clip-path-3);}.cls-24{clip-path:url(#clip-path-4);}.cls-25{fill:url(#Gradiente_sem_nome_4);}.cls-26{fill:url(#Gradiente_sem_nome_4-2);}.cls-27{fill:url(#Gradiente_sem_nome_28);}.cls-28{fill:url(#Gradiente_sem_nome_94);}.cls-29{fill:url(#Gradiente_sem_nome_94-2);}.cls-30{fill:url(#Gradiente_sem_nome_26);}.cls-31{font-size:12.82px;font-family:Georgia;}.cls-31,.cls-32{fill:#ddd;}.cls-33{clip-path:url(#clip-path-5);}.cls-34,.cls-36{fill:none;}.cls-34{stroke:#8e46b9;}.cls-34,.cls-36,.cls-37{stroke-miterlimit:10;}.cls-35{clip-path:url(#clip-path-6);}.cls-36{stroke:#000;}.cls-37{stroke:#655e08;stroke-width:0.75px;}</style><linearGradient id="Gradiente_sem_nome_25" x1="237.92" y1="278.68" x2="237.92" y2="305.53" gradientTransform="translate(31.61 -39.02) rotate(5.55)" gradientUnits="userSpaceOnUse"><stop offset="0" stop-color="#8e46b9"/><stop offset="0.26" stop-color="#47235c"/><stop offset="0.46" stop-color="#140a1a"/><stop offset="0.55"/><stop offset="0.61" stop-color="#010401"/><stop offset="0.68" stop-color="#030f05"/><stop offset="0.74" stop-color="#07230c"/><stop offset="0.8" stop-color="#0d3e16"/><stop offset="0.86" stop-color="#146222"/><stop offset="0.92" stop-color="#1c8d31"/><stop offset="0.98" stop-color="#26bf43"/><stop offset="1" stop-color="#2ad149"/></linearGradient><linearGradient id="Gradiente_sem_nome_25-2" x1="308.66" y1="277.31" x2="308.66" y2="306.08" xlink:href="#Gradiente_sem_nome_25"/><linearGradient id="Gradiente_sem_nome_88" x1="291.86" y1="180.55" x2="186.29" y2="-92.63" gradientTransform="translate(296.61 -94.84) rotate(71.11)" gradientUnits="userSpaceOnUse"><stop offset="0"/><stop offset="0.09" stop-color="#070508"/><stop offset="0.35" stop-color="#18101a"/><stop offset="0.62" stop-color="#231725"/><stop offset="0.93" stop-color="#261928"/></linearGradient><linearGradient id="Gradiente_sem_nome_87" x1="326.45" y1="215.49" x2="511.33" y2="-82.46" gradientTransform="translate(443.03 -154.33) rotate(69.18)" gradientUnits="userSpaceOnUse"><stop offset="0"/><stop offset="0.07" stop-color="#070508"/><stop offset="0.27" stop-color="#18101a"/><stop offset="0.48" stop-color="#231725"/><stop offset="0.72" stop-color="#261928"/></linearGradient><clipPath id="clip-path"><path class="cls-1" d="M187,471.84c-14-22.2-92.08-56.12-92.08-56.12l-14.29-19L61.26,409.12l14.92,26.74s26.66,74.93,63.77,97.38l6.15,11.27L161,542.18S213.74,514.19,187,471.84Z"/></clipPath><linearGradient id="Gradiente_sem_nome_37" x1="104.29" y1="818.25" x2="258.34" y2="658.1" gradientTransform="matrix(0.55, 0.84, -0.39, 0.83, 312.44, -204.13)" gradientUnits="userSpaceOnUse"><stop offset="0.47" stop-color="#8e46b9"/><stop offset="0.57" stop-color="#8b45b5"/><stop offset="0.67" stop-color="#8443aa"/><stop offset="0.77" stop-color="#763f97"/><stop offset="0.86" stop-color="#643a7d"/><stop offset="0.96" stop-color="#4c345b"/><stop offset="1" stop-color="#3f3049"/></linearGradient><clipPath id="clip-path-2"><path class="cls-2" d="M450.31,458.37c25.86,4.5,79.77,55.09,79.77,55.09l30.1,7.3-4,30-30.41-3.61s-82.69,10.22-116.73-20.68l-10.36-2.57-3.53-14.68S401,449.78,450.31,458.37Z"/></clipPath><linearGradient id="Gradiente_sem_nome_15" x1="437.8" y1="512.41" x2="867.14" y2="740.39" gradientTransform="translate(-13.18 13.93) rotate(-1.57)" gradientUnits="userSpaceOnUse"><stop offset="0.07" stop-color="#1b141f"/><stop offset="0.28" stop-color="#301e3d"/><stop offset="0.5" stop-color="#492960"/></linearGradient><linearGradient id="Gradiente_sem_nome_14" x1="386.83" y1="483.73" x2="386.83" y2="336.93" gradientUnits="userSpaceOnUse"><stop offset="0.09" stop-color="#1b141f"/><stop offset="0.44" stop-color="#301e3d"/><stop offset="0.8" stop-color="#492960"/></linearGradient><linearGradient id="Gradiente_sem_nome_36" x1="245.67" y1="500.32" x2="245.67" y2="352.24" gradientTransform="translate(77.91 -66.96) rotate(12.11)" gradientUnits="userSpaceOnUse"><stop offset="0.33" stop-color="#8e46b9"/><stop offset="0.43" stop-color="#8945b2"/><stop offset="0.58" stop-color="#7c41a0"/><stop offset="0.75" stop-color="#673b82"/><stop offset="0.94" stop-color="#493358"/><stop offset="1" stop-color="#3f3049"/></linearGradient><clipPath id="clip-path-3"><path class="cls-1" d="M134.3,634.06c8.16,61.09,101.83,105.61,154.25,98.61s51.51-102.88,38.9-163.21c-13.5-64.59-69.29-94.56-121.71-87.55S126.14,573,134.3,634.06Z"/></clipPath><clipPath id="clip-path-4"><path class="cls-1" d="M489.53,639.26c-4.89,61.44-96,110.9-148.77,106.7s-56.93-100-47.55-160.9c10-65.22,64.14-98.12,116.86-93.92S494.42,577.82,489.53,639.26Z"/></clipPath><linearGradient id="Gradiente_sem_nome_4" x1="402.55" y1="689.12" x2="402.55" y2="435.38" gradientTransform="translate(-74.18 81.27) rotate(-11.3)" gradientUnits="userSpaceOnUse"><stop offset="0" stop-color="#8e46b9"/><stop offset="0.12" stop-color="#8945b2"/><stop offset="0.29" stop-color="#7c41a0"/><stop offset="0.49" stop-color="#673b82"/><stop offset="0.71" stop-color="#493358"/><stop offset="0.78" stop-color="#3f3049"/></linearGradient><linearGradient id="Gradiente_sem_nome_4-2" x1="1511.13" y1="663.49" x2="1511.13" y2="419.33" gradientTransform="matrix(-0.99, -0.11, -0.11, 0.99, 1750.17, 181.68)" xlink:href="#Gradiente_sem_nome_4"/><linearGradient id="Gradiente_sem_nome_28" x1="284.44" y1="448.38" x2="284.44" y2="537.89" gradientTransform="translate(-20.67 25.89) rotate(-3.53)" gradientUnits="userSpaceOnUse"><stop offset="0.08" stop-color="#282828"/><stop offset="0.19" stop-color="#333"/><stop offset="0.41" stop-color="#454545"/><stop offset="0.57" stop-color="#4c4b4c"/></linearGradient><linearGradient id="Gradiente_sem_nome_94" x1="226.86" y1="487.5" x2="226.86" y2="360.13" gradientTransform="translate(-20.67 25.89) rotate(-3.53)" gradientUnits="userSpaceOnUse"><stop offset="0" stop-color="#282828"/><stop offset="0.12" stop-color="#686868"/><stop offset="0.23" stop-color="#9e9e9e"/><stop offset="0.34" stop-color="#c8c8c8"/><stop offset="0.44" stop-color="#e6e6e6"/><stop offset="0.52" stop-color="#f8f8f8"/><stop offset="0.58" stop-color="#fff"/></linearGradient><linearGradient id="Gradiente_sem_nome_94-2" x1="331.9" y1="490.24" x2="331.9" y2="357.84" xlink:href="#Gradiente_sem_nome_94"/><linearGradient id="Gradiente_sem_nome_26" x1="281.03" y1="559.58" x2="281.03" y2="318.44" gradientTransform="translate(-20.67 25.89) rotate(-3.53)" gradientUnits="userSpaceOnUse"><stop offset="0.15" stop-color="#3f3049"/><stop offset="0.35" stop-color="#58376c"/><stop offset="0.76" stop-color="#8e46b9"/><stop offset="0.8" stop-color="#8b45b5"/><stop offset="0.84" stop-color="#8242a9"/><stop offset="0.88" stop-color="#743c96"/><stop offset="0.92" stop-color="#60347b"/><stop offset="0.96" stop-color="#462a58"/><stop offset="1" stop-color="#261e2d"/></linearGradient><clipPath id="clip-path-5"><path class="cls-3" d="M225,261.83c14.6-4.31,25.57,4.08,30.07,10.51,1.7,2.42,3.26,17.63,3.26,17.63s-25.8-8.12-32.07-4.44C218,290.41,219.68,263.4,225,261.83Z"/></clipPath><clipPath id="clip-path-6"><path class="cls-4" d="M335.15,271.85c-13.5-7-37.69-5.87-45.26,3-1.93,2.25-8.22,18-8.22,18s34.81-1,46.45,1.65C340.18,297.23,340.07,274.42,335.15,271.85Z"/></clipPath></defs><g id="Camada_2" data-name="Camada 2"><path class="cls-5" d="M166.76,210.27a13.3,13.3,0,0,1-2-1.55,6.4,6.4,0,0,1,8.85-9.24c.38.37,1.87.68,4.35-.06a25.06,25.06,0,0,0,10.26-6.75c6.46-6.75,7.45-13.66,6.16-14.9a6.39,6.39,0,1,1,8.84-9.23c7.67,7.34,5.19,21.52-5.77,33a37.53,37.53,0,0,1-15.86,10.17C176,213.36,170.69,212.83,166.76,210.27Z"/><path class="cls-5" d="M190.1,256a16.36,16.36,0,0,1-3.2-.13,8.17,8.17,0,0,1,2.19-16.2c.67.1,2.45-.71,4.46-3.33,2.73-3.57,4.74-8.93,5.52-14.7,1.6-11.84-2.57-19.73-4.83-20a8.17,8.17,0,1,1,2.19-16.2c13.46,1.82,21.55,18.34,18.84,38.43-1.17,8.63-4.27,16.61-8.75,22.45C201.94,252.3,196.09,255.72,190.1,256Z"/><polygon class="cls-6" points="184.81 189.69 260.07 77.6 382.1 57.3 429.45 0 460.27 163.19 331.73 274.93 215.98 278.19 184.81 189.69"/><polygon class="cls-2" points="416.68 39.01 421.21 129.5 314.15 222.76 308.21 205.42 306.63 222.19 297.18 216 302.52 227.79 234.9 236.7 209.65 192.74 276.99 93.53 387.17 83.57 400.13 55.66 404.62 68.78 416.68 39.01"/><path class="cls-7" d="M188.43,256a7.9,7.9,0,0,1-1.53-.06c-7.07-1-13-6.22-16.37-14.46-2.76-6.82-3.64-15.33-2.47-24s4.28-16.61,8.75-22.45c5.4-7.06,12.57-10.54,19.62-9.6a8.17,8.17,0,1,1-2.19,16.2c-.67-.09-2.44.71-4.45,3.34-2.73,3.56-4.75,8.92-5.53,14.7s-.26,11.47,1.43,15.64c1.23,3.05,2.71,4.3,3.4,4.39a8.17,8.17,0,0,1-.66,16.26Z"/><path class="cls-7" d="M165.73,209.46a6.42,6.42,0,0,1-.93-.74c-4-3.86-5.38-9.94-3.7-16.68a40.06,40.06,0,0,1,25.33-26.46c6.66-2,12.8-.89,16.82,3a6.39,6.39,0,1,1-8.84,9.23c-.38-.36-1.87-.67-4.35.06a27.56,27.56,0,0,0-16.56,17.3c-.62,2.51-.26,4,.13,4.35a6.39,6.39,0,0,1-7.9,10Z"/><path class="cls-5" d="M456.17,389.58a13,13,0,0,0,2.49.21,6.4,6.4,0,1,0-.14-12.79c-.53,0-1.83-.78-3.13-3a24.84,24.84,0,0,1-2.87-11.94c-.11-9.35,3.89-15.07,5.68-15.09a6.4,6.4,0,0,0-.14-12.79c-10.62.12-18.5,12.16-18.33,28a37.42,37.42,0,0,0,4.63,18.27C447.34,385.54,451.55,388.76,456.17,389.58Z"/><path class="cls-5" d="M418.32,406.08a19.59,19.59,0,0,0,3.57.69,9.27,9.27,0,0,0,1.8-18.46c-.76-.07-2.51-1.42-4.05-4.84-2.08-4.65-2.91-11.09-2.27-17.67,1.32-13.49,8-21.12,10.56-20.86a9.27,9.27,0,0,0,1.8-18.46C414.4,325,401.15,341.12,398.91,364c-1,9.84.4,19.45,3.81,27.06C406.23,398.87,411.79,404.18,418.32,406.08Z"/><polygon class="cls-8" points="354 206.61 476.75 150.4 591.39 196.89 661.71 172.8 602.67 328.03 434.68 356.09 334.31 298.35 354 206.61"/><path class="cls-7" d="M420.19,406.44a9.3,9.3,0,0,0,1.7.33c8.05.79,16-3.48,21.84-11.7,4.82-6.81,8-16,9-25.82s-.39-19.45-3.81-27.06c-4.12-9.2-11.13-14.92-19.16-15.71a9.27,9.27,0,1,0-1.8,18.46c.76.07,2.51,1.42,4,4.84,2.09,4.65,2.92,11.09,2.27,17.67s-2.7,12.74-5.64,16.9c-2.16,3-4.12,4-4.9,4a9.27,9.27,0,0,0-3.51,18.13Z"/><path class="cls-7" d="M457.47,389.69a6.67,6.67,0,0,0,1.19.1c5.58-.06,10.72-3.58,14.1-9.65a40.08,40.08,0,0,0-.4-36.63c-3.51-6-8.74-9.39-14.3-9.34A6.4,6.4,0,1,0,458.2,347c.52,0,1.82.79,3.13,3a27.52,27.52,0,0,1,.26,23.94c-1.25,2.25-2.52,3.08-3.06,3.08a6.39,6.39,0,0,0-1.06,12.69Z"/><polygon class="cls-2" points="463.76 181.04 389.71 205.75 374.26 267.79 462.7 313.64 581.15 289.8 623.2 205.28 590.54 214.17 594.3 224.04 584.31 216.36 478.07 185.93 479.48 200.76 468.37 186.18 458.71 191.44 463.76 181.04"/><polygon class="cls-1" points="204.66 333.01 187.57 278.36 213.43 220.5 205.48 186.3 274.64 176.1 315.2 150.44 350.6 190.7 394.76 185.25 414.38 238.44 380.02 297.55 383.62 324.52 340.12 342.69 334.88 306.55 251.39 302.36 204.66 333.01"/><path class="cls-1" d="M376.54,174.37c-4,8.52-25.37,11.37-25.37,11.37s-9.58-19.28-4.76-27.39c5.92-10,18.63-3.9,15.44,7.29C369.35,156.74,381.36,164.15,376.54,174.37Z"/><polygon class="cls-9" points="41.05 338.64 29.61 333.86 25.18 324.08 38.8 332.08 41.05 338.64"/><polygon class="cls-10" points="95.67 400.4 45.63 419.39 48.08 490.06 18.52 550.8 29.33 606.76 23.83 710.67 142.98 472.79 95.67 400.4"/><path class="cls-1" d="M187,471.84c-14-22.2-92.08-56.12-92.08-56.12l-14.29-19L61.26,409.12l14.92,26.74s26.66,74.93,63.77,97.38l6.15,11.27L161,542.18S213.74,514.19,187,471.84Z"/><g class="cls-11"><rect class="cls-12" x="44.64" y="381.75" width="86.28" height="64.71" transform="translate(415.81 681.66) rotate(141.17)"/><rect class="cls-12" x="80.95" y="456.22" width="92.87" height="22.77" transform="translate(519.81 752) rotate(141.17)"/></g><polygon class="cls-13" points="196.73 493.54 169.53 442.22 136.71 428.8 93.37 398.81 97.46 467.78 71.54 564.64 0 711.73 136.34 724.14 180.82 604.47 212.05 565.52 196.73 493.54"/><polygon class="cls-14" points="93.37 398.81 97.46 467.78 71.54 564.64 0 711.73 28.16 714.3 94.5 588.46 114.06 480.68 110.8 410.87 93.37 398.81"/><polygon class="cls-14" points="169.53 442.22 188.14 546.38 167.81 601.58 136.34 724.14 125.03 723.11 152.83 592.81 171.38 533.47 156.14 436.75 169.53 442.22"/><polygon class="cls-15" points="60.03 341.45 53.08 330.25 35.46 331.84 45.5 344.04 47.59 357.54 56.59 366.43 62.87 356.05 60.03 341.45"/><polygon class="cls-15" points="58.53 370.74 62.93 353.66 72.64 353.23 74.03 358.71 97.08 369.53 89.53 382.77 58.53 370.74"/><polygon class="cls-12" points="60.39 408.55 45.82 394.5 47.1 371.81 62.87 356.05 91.39 369.65 86.17 406.5 60.39 408.55"/><polygon class="cls-12" points="47.14 382.97 46.15 358.41 57.45 336.32 57.64 320.58 70.53 327.3 71.47 342.44 64.56 366.16 47.14 382.97"/><polygon class="cls-9" points="59.48 330.03 55.57 318.71 60.93 305.44 66.46 322.54 59.48 330.03"/><path class="cls-9" d="M51.48,254.81c2.87,9-10.25,25.84-10.25,25.84s-20.37-7.13-22.51-16.31c-2.26-9.66,11.14-14,16.15-5.54C34.67,248.4,48.46,245.36,51.48,254.81Z"/><path class="cls-9" d="M41.47,285.31a6.38,6.38,0,0,1,3.73,5.79c0,2.92-2.41,5.39-3.4,8a15.94,15.94,0,0,0,3.84,16.78c1.38,1.36,3.5-.76,2.13-2.12a12.88,12.88,0,0,1-3.9-8.19c-.25-3.41,1-6.14,2.58-9,1.39-2.46,2.2-5.06,1.44-7.87a9.22,9.22,0,0,0-4.91-6c-1.73-.82-3.26,1.77-1.51,2.59Z"/><polygon class="cls-10" points="677.98 503.96 519.68 621.27 591.82 794.68 715.27 904.23 840.83 528.56 677.98 503.96"/><polygon points="600.53 566.32 623.76 566.94 637.18 604.07 652.56 606.65 644.43 560.2 647.57 551.66 594.37 548.89 600.53 566.32"/><polygon class="cls-16" points="645.87 566.49 649.08 586.09 575.08 679.09 666.65 596.34 645.87 566.49"/><path class="cls-2" d="M450.31,458.37c25.86,4.5,79.77,55.09,79.77,55.09l30.1,7.3-4,30-30.41-3.61s-82.69,10.22-116.73-20.68l-10.36-2.57-3.53-14.68S401,449.78,450.31,458.37Z"/><g class="cls-17"><polygon points="513.04 507.98 532.84 520.49 493.1 508.56 518.44 521.11 488.96 522.39 516.06 530.07 444.47 525.68 510.56 540.86 491.81 543.6 540.99 554.77 552.9 512.21 513.04 507.98"/><path class="cls-12" d="M563.51,521l-33-15.87,13.3,16.65-16.49-5.16,15.25,7.27-20.49-2.72,25.36,8-35.13-3.49,30.86,10.07s-26.61-2.37-26.12-2.28,24.83,6.41,24.83,6.41l-19.85.08,21.61,4.79-23.77,10.09,40.86-.12Z"/><path d="M512,496.41l-50.71-6.86,14,6.87-43.13,4.06L492.9,514.9l-47.55,1.71,46.22,8.8-67.95-3.19,43.76,12.86-17.95,2.47,19.24,11.06c-24.78-.1-46.7-7.41-65.7-22.09l31.64,5-36.85-18.28,41.09,4-26.56-8.76,42.28,3-51.11-15.78,48.05-3.46S420.55,473.9,421,474s74.05,6.6,74.05,6.6Z"/></g><path class="cls-12" d="M550.81,549.11l25,22.19,27.24-5.4,1-35.85S553.15,518.41,553.35,519,550.81,549.11,550.81,549.11Z"/><polygon points="583.86 526.17 588 515.87 600.05 519.31 726.04 461.23 726.97 474.87 820.62 558.84 803.16 564.38 717.47 493.01 597.28 539.06 583.86 526.17"/><polygon points="590.23 530.85 718.62 509.48 717.75 519.19 759.09 574.76 735.46 577.65 703 534.8 595.36 547.85 590.23 530.85"/><polygon points="600.66 555.75 682.63 541.1 700.99 593.95 722.76 602.01 695.13 527.07 599.46 541.47 600.66 555.75"/><polygon points="555.22 540.41 559.77 576.06 578.35 583.12 581.05 545.07 555.22 540.41"/><polygon class="cls-9" points="807.7 551.08 739.05 689.26 844.18 553.66 807.87 509.6 807.7 551.08"/><polygon class="cls-18" points="756.63 545.73 754.22 565.43 657.14 634 768.21 580.2 756.63 545.73"/><polygon class="cls-18" points="709.84 558.5 714.72 577.74 648.95 676.75 733.1 586.46 709.84 558.5"/><polygon class="cls-9" points="563.97 542.75 561.58 562.46 639.39 652.31 544.45 573.44 563.97 542.75"/><polygon class="cls-19" points="432.04 447.17 467.58 456.23 530.56 505.1 587.92 506.43 721.08 449.93 840.83 528.56 677.87 572.34 591.82 794.68 473.62 627.82 354.36 501.78 432.04 447.17"/><polygon class="cls-14" points="840.83 528.56 679.09 580.56 596.47 798.8 591.82 794.68 574.4 770.09 656.61 556.07 821.16 509.94 840.83 528.56"/><polygon class="cls-14" points="587.92 506.43 547.49 529.16 497.22 661.14 476.9 632.45 518.44 521.11 552.23 505.6 587.92 506.43"/><path class="cls-20" d="M285.73,475.31c51.43,2.34,183.47-143.73,17.15-143.73C164.21,331.58,234.31,473,285.73,475.31Z"/><path class="cls-1" d="M430.88,394.22A37.37,37.37,0,0,0,396,354.56c-51.33-3.25-54.7,58.68-50.95,82.67,3,19,22.68,42.34,22.68,42.34l45.18.27c8.36-13.65,14.56-43.54,8-62.47A37.2,37.2,0,0,0,430.88,394.22Z"/><polygon class="cls-21" points="348.48 483.73 334.66 389.1 359.1 336.93 419.13 354.29 439 388.44 434.38 419.48 417.54 476.43 348.48 483.73"/><path class="cls-1" d="M193.32,377.69a37.37,37.37,0,0,1,42.59-31.29c50.84,7.77,40.92,69,32.13,91.63-7,18-28.19,34.42-28.19,34.42l-47.2-7.27c-5.25-15.12-4.93-45.64,5.49-62.74A37.21,37.21,0,0,1,193.32,377.69Z"/><polygon class="cls-22" points="261.62 332.74 193.89 348.59 180.67 377.16 187.99 416.21 183.58 467.44 249.49 472.85 274.77 434.33 282.99 374.81 261.62 332.74"/><path class="cls-20" d="M283.14,450.49c70.25-3.19,205.54,173.24,9.06,173.24C127.63,623.73,212.89,453.69,283.14,450.49Z"/><polygon class="cls-2" points="219.42 683.12 194.69 865.18 235.54 873.97 302.13 762.33 317.46 704.66 219.42 683.12"/><polygon class="cls-1" points="213.46 692.58 195.22 771.06 224.09 745.19 215.78 777.51 269.25 756.6 292.28 793.98 293.51 763.17 319.57 778.58 317.95 717.1 213.46 692.58"/><polygon class="cls-2" points="195.63 853.09 182.51 873.87 211.79 903.49 271.36 903.2 243.79 890.55 235 861.5 195.63 853.09"/><polygon class="cls-2" points="434.76 853.09 447.87 873.87 418.6 903.49 359.02 903.2 386.6 890.55 395.39 861.5 434.76 853.09"/><polygon class="cls-2" points="409.74 679.21 435.91 861.07 395.13 870.19 327.66 759.08 311.87 701.53 409.74 679.21"/><polygon class="cls-1" points="415.77 688.63 434.64 766.96 405.56 741.32 414.13 773.58 360.49 753.09 337.76 790.65 336.29 759.85 310.35 775.46 311.48 713.97 415.77 688.63"/><circle cx="233.1" cy="533.82" r="96.41"/><path class="cls-1" d="M134.3,634.06c8.16,61.09,101.83,105.61,154.25,98.61s51.51-102.88,38.9-163.21c-13.5-64.59-69.29-94.56-121.71-87.55S126.14,573,134.3,634.06Z"/><g class="cls-23"><rect x="117.23" y="417.85" width="229.16" height="145.8" transform="translate(28.6 -12.51) rotate(3.3)"/></g><polygon points="241.22 723.53 222.04 713.94 249.79 700.99 292.19 706.06 277.35 719.7 306.3 704.51 245.27 684.6 213.72 714.05 241.22 723.53"/><polygon points="276 710.85 256.3 723.22 239.68 717.58 256.06 720.51 276 710.85"/><circle cx="392.76" cy="545.01" r="96.41"/><path class="cls-1" d="M489.53,639.26c-4.89,61.44-96,110.9-148.77,106.7s-56.93-100-47.55-160.9c10-65.22,64.14-98.12,116.86-93.92S494.42,577.82,489.53,639.26Z"/><g class="cls-24"><rect x="283.23" y="415.28" width="229.16" height="145.8" transform="translate(-30.5 26.52) rotate(-3.68)"/></g><polygon points="323.33 721.55 306.59 708.13 336.45 701.32 376.83 715.21 359.45 725.42 390.95 716.67 335.48 684.35 298.44 706.49 323.33 721.55"/><polygon points="360 716.48 338.13 724.43 323.07 715.41 338.47 721.73 360 716.48"/><polygon class="cls-25" points="333.77 473.22 392.38 494.84 442.8 557.85 463.17 676.68 505.43 523.29 490.38 485.89 468.63 457.91 442.94 452.94 415.06 448.26 393.93 431.76 333.77 473.22"/><polygon class="cls-14" points="462.98 652.14 446.36 550.64 395.03 475.71 369.85 465.69 333.77 473.22 390.69 495.87 442.02 570.8 461.94 687.36 505.43 523.29 500.43 510.87 462.98 652.14"/><polygon class="cls-26" points="277.19 467.11 220.64 493.64 171.53 543.96 165.99 671.25 110.42 531.61 122.23 493.06 141.52 463.33 166.69 456.19 194.08 449.16 213.72 430.92 277.19 467.11"/><polygon class="cls-14" points="163.67 656.37 168.43 534.64 216.37 474.81 240.6 462.68 277.19 467.11 222.41 494.52 174.47 554.36 167.71 691.38 110.42 531.61 114.34 518.8 163.67 656.37"/><path class="cls-2" d="M225.85,517.41s-9.78-.23-14.39,6c0,0,9.42-.21,11,2.9,0,0-8.27,5.36-4.3,15.77,0,0,6.18-7.85,12.75-5.17,0,0,1.49,8.61,6.49,10.72,0,0-.6-10,6.79-11.57Z"/><path class="cls-2" d="M363.2,510.48s9.45-2.5,15.37,2.44c0,0-9.21,2-10.05,5.38,0,0,9.28,3.3,7.84,14.35,0,0-7.83-6.21-13.6-2.08,0,0,.55,8.73-3.82,11.95,0,0-1.75-9.91-9.3-9.69Z"/><path class="cls-27" d="M357.13,485.06c22.72,49.26-18.94,63.15-66.19,58.29-39.75,12.17-78.64-13.06-62.27-50.37,1.55-33.5,35-35.41,60.07-37C316.15,454.34,351.43,452,357.13,485.06Z"/><path class="cls-28" d="M228,371.36s68.12,9.81,71.43,57.7c5.72,82.76-129.23,94.21-134.36,22.79C161.61,404.23,206.37,404.36,228,371.36Z"/><path class="cls-29" d="M355.5,361.2s-91.82,21.67-88.28,69.54c6.47,87.32,145.53,85.25,138.85-6.26C403.89,394.51,372.33,391.05,355.5,361.2Z"/><polygon class="cls-30" points="301.38 325.07 245.56 333.58 220.58 362.91 218.3 379.59 170.52 411.24 160.49 453.29 197.02 566.9 196.56 466.94 274.97 488.57 360.62 447.89 380.55 561.78 413.06 437.21 398.72 397.9 361.8 367.76 363.52 352.77 354.27 331.51 301.38 325.07"/><polygon class="cls-14" points="178.96 510.73 197.02 566.9 196.56 466.94 274.97 488.57 360.62 447.89 380.55 561.78 396.7 499.9 382.62 528.24 373.1 432.89 273.31 483.05 186.88 449.35 190.5 534.8 178.96 510.73"/><path class="cls-1" d="M305.79,496.54s-15.91,3-19.06,5.76c-4.63-2.94-17.41-3.39-17.41-3.39s12.68-2.31,16.73.46C290.32,496.16,305.79,496.54,305.79,496.54Z"/><circle class="cls-7" cx="285.33" cy="505.4" r="3.9"/><circle class="cls-7" cx="285.89" cy="498.32" r="1.73"/><polygon points="340.77 514.08 345.21 492.65 323.51 498.45 340.77 514.08"/><text class="cls-31" transform="translate(331.71 506.73) rotate(-18.6)">D</text><text class="cls-31" transform="translate(336.41 508.26) rotate(-18.6)">L</text><polygon points="321.33 498.64 325.24 506.51 316.22 506.47 321.33 498.64"/><polygon points="319.06 493.43 318.37 498.5 314.03 495.53 319.06 493.43"/><polygon points="347.48 512.25 344.95 503.84 353.84 505.4 347.48 512.25"/><polygon points="350.8 516.44 352.86 511.75 356.22 515.8 350.8 516.44"/><polygon class="cls-1" points="271.69 354.6 256.83 342.21 265.49 342.71 250.72 330.71 263.76 332.56 255.59 314.98 320.47 314.98 313.29 329.34 324.18 327.11 312.79 341.22 323.69 340.98 278.62 371.93 282.08 360.54 275.89 363.76 271.69 354.6"/><polygon points="204.66 333.01 229.12 318.55 335.78 313.32 340.12 342.69 362.44 295.02 343.69 228.51 274.52 250.69 222.96 221.42 187.03 270.34 204.66 333.01"/><path class="cls-12" d="M219,287.38s-8.56-4.74-15.51-1.41c0,0,8.44,4.19,8.43,7.69,0,0-9.81.91-11.13,12,0,0,9.12-4.09,13.69,1.33,0,0-2.67,8.32.78,12.51,0,0,4.12-9.17,11.39-7.1Z"/><path class="cls-12" d="M274.52,250.69s55-28.06,68.48,4.4c7.31,17.55-3.8,44.76-3.8,44.76C316,360.14,216,344.4,211.78,287.47L221,274.18s-1.35-21.53,3.17-30.88C237.1,216.58,274.52,250.69,274.52,250.69Z"/><path class="cls-32" d="M265,301.21l-17.88-8.89,4.51.44-16-9.09s18.66-7.26,29.2,1.43c0,0-3.43-4.34-1.09-8.88l6.17,8.95,8.88-7s.78,7.74-2.18,8.47c0,0,20.13-2.3,28.08,5.62l-17.51,3.58,7.48,2Z"/><path class="cls-20" d="M322.29,314.15c-.53,4.64-7.94,9.8-7.94,9.8s-5.57-7.11-4.72-11.7c1.06-5.64,6.32-5.15,6.39.55C317.76,307.37,322.92,308.59,322.29,314.15Z"/><path class="cls-20" d="M221.06,304.44c-.06,4.37,5.88,10.05,5.88,10.05s5.67-5.94,5.43-10.3c-.3-5.37-5-5.55-5.67-.25C225.78,298.68,221.12,299.2,221.06,304.44Z"/><path class="cls-3" d="M225,261.83c14.6-4.31,25.57,4.08,30.07,10.51,1.7,2.42,3.26,17.63,3.26,17.63s-25.8-8.12-32.07-4.44C218,290.41,219.68,263.4,225,261.83Z"/><g class="cls-33"><ellipse cx="245.9" cy="276.41" rx="23.9" ry="16.59" transform="translate(-52.99 494.42) rotate(-84.45)"/><ellipse class="cls-34" cx="245.33" cy="276.74" rx="18.31" ry="10.13" transform="translate(-53.83 494.16) rotate(-84.45)"/><ellipse class="cls-34" cx="246.54" cy="276.51" rx="28.18" ry="18.42" transform="translate(-52.51 495.16) rotate(-84.45)"/><ellipse class="cls-12" cx="246.22" cy="276.66" rx="12.5" ry="2.96" transform="translate(-52.95 494.97) rotate(-84.45)"/></g><path class="cls-4" d="M335.15,271.85c-13.5-7-37.69-5.87-45.26,3-1.93,2.25-8.22,18-8.22,18s34.81-1,46.45,1.65C340.18,297.23,340.07,274.42,335.15,271.85Z"/><g class="cls-35"><ellipse cx="311.36" cy="282.47" rx="23.9" ry="16.59" transform="matrix(0.1, -1, 1, 0.1, 0.1, 565.06)"/><ellipse class="cls-34" cx="310.79" cy="282.81" rx="17.92" ry="10.13" transform="translate(-0.75 564.8) rotate(-84.45)"/><ellipse class="cls-34" cx="310.96" cy="281.82" rx="30.57" ry="20.59" transform="matrix(0.1, -1, 1, 0.1, 0.39, 564.07)"/><ellipse class="cls-12" cx="311.17" cy="282.47" rx="12.5" ry="3.37" transform="translate(-0.07 564.87) rotate(-84.45)"/></g><path class="cls-9" d="M264.33,304.22s-14.89-6.24-9.14-9.14a9,9,0,0,1,10.07,1.25,11.34,11.34,0,0,1,11.38.67C282.94,301.29,264.33,304.22,264.33,304.22Z"/><path class="cls-9" d="M259.57,320.36c-1.61-3.22-3.23-9.27,9.54-9.1s18,5.06,17.05,9.29-10.36,8.84-14.93,8.32C259.83,327.6,259.57,320.36,259.57,320.36Z"/><path class="cls-36" d="M253.62,313.38c-.13,7.19,3.16,10.87,16,4.77,14.3,8.54,20,5.4,21.36-3.74"/><path class="cls-12" d="M334.06,298.56s9.31-3,15.49,1.61c0,0-9.09,2.48-9.75,5.92,0,0,9.45,2.78,8.61,13.89,0,0-8.16-5.76-13.69-1.33,0,0,1,8.69-3.17,12.14,0,0-2.28-9.8-9.81-9.17Z"/><path d="M330.44,254.46s-3.2-9.76-26-5.18C304.4,249.28,327.22,237.93,330.44,254.46Z"/><path d="M228.45,242.81s5-9,26.54-.07C255,242.74,234.79,227.21,228.45,242.81Z"/><circle class="cls-37" cx="321.87" cy="301.87" r="3.72"/><circle class="cls-37" cx="314.87" cy="303.78" r="2.54"/><polygon class="cls-9" points="271.63 232.62 274.52 250.69 224.12 227.42 191.2 279.46 204.66 333.01 176.72 274.82 201.35 226.21 205.48 186.3 262.42 237.86 271.63 232.62"/><polygon class="cls-9" points="279.67 233.57 274.52 250.69 335.08 237.71 356.66 296.44 340.12 342.69 371.76 294.68 357.66 240.89 365.53 201.77 287.73 240.83 279.67 233.57"/></g></svg>