<svg xmlns="http://www.w3.org/2000/svg" xmlns:xlink="http://www.w3.org/1999/xlink" viewBox="0 0 970.6 1089.69"><defs><style>.cls-1{fill:#222122;}.cls-2{fill:#261928;}.cls-3{fill:url(#Gradiente_sem_nome_25);}.cls-4{fill:url(#Gradiente_sem_nome_25-2);}.cls-5{fill:#655e08;}.cls-6{fill:#bcaf0f;}.cls-7{fill:url(#Gradiente_sem_nome_88);}.cls-8{fill:#4c4b4c;}.cls-9{fill:#9d9608;}.cls-10,.cls-40{fill:#f4e90c;}.cls-11{fill:url(#Gradiente_sem_nome_87);}.cls-12{fill:#0a070c;}.cls-13{fill:#22142e;}.cls-14{clip-path:url(#clip-path);}.cls-15{fill:#fff;}.cls-16{fill:#6d368e;}.cls-17{fill:#46275c;}.cls-18{fill:url(#Gradiente_sem_nome_14);}.cls-19{fill:#200126;}.cls-20{fill:#282828;}.cls-21{fill:url(#Gradiente_sem_nome_13);}.cls-22{fill:url(#Gradiente_sem_nome_36);}.cls-23{clip-path:url(#clip-path-2);}.cls-24{fill:url(#Gradiente_sem_nome_9);}.cls-25{fill:#430251;}.cls-26{clip-path:url(#clip-path-3);}.cls-27{clip-path:url(#clip-path-4);}.cls-28{fill:url(#Gradiente_sem_nome_4);}.cls-29{fill:url(#Gradiente_sem_nome_4-2);}.cls-30{fill:url(#Gradiente_sem_nome_28);}.cls-31{fill:url(#Gradiente_sem_nome_94);}.cls-32{fill:url(#Gradiente_sem_nome_94-2);}.cls-33{fill:url(#Gradiente_sem_nome_26);}.cls-34{font-size:13.86px;font-family:Georgia;}.cls-34,.cls-35{fill:#ddd;}.cls-36{clip-path:url(#clip-path-5);}.cls-37{fill:none;stroke:#8e46b9;}.cls-37,.cls-40{stroke-miterlimit:10;}.cls-38{clip-path:url(#clip-path-6);}.cls-39{fill:#8e46b9;}.cls-40{stroke:#655e08;stroke-width:0.75px;}</style><linearGradient id="Gradiente_sem_nome_25" x1="324.31" y1="398.66" x2="324.31" y2="428.37" gradientTransform="translate(90.69 -88.68) rotate(11.4)" gradientUnits="userSpaceOnUse"><stop offset="0" stop-color="#8e46b9"/><stop offset="0.26" stop-color="#47235c"/><stop offset="0.46" stop-color="#140a1a"/><stop offset="0.55"/><stop offset="0.61" stop-color="#010401"/><stop offset="0.68" stop-color="#030f05"/><stop offset="0.74" stop-color="#07230c"/><stop offset="0.8" stop-color="#0d3e16"/><stop offset="0.86" stop-color="#146222"/><stop offset="0.92" stop-color="#1c8d31"/><stop offset="0.98" stop-color="#26bf43"/><stop offset="1" stop-color="#2ad149"/></linearGradient><linearGradient id="Gradiente_sem_nome_25-2" x1="397.99" y1="397.49" x2="397.99" y2="429.26" xlink:href="#Gradiente_sem_nome_25"/><linearGradient id="Gradiente_sem_nome_88" x1="350.13" y1="345.49" x2="236.02" y2="50.22" gradientTransform="translate(76.25 -76.47) rotate(9.51)" gradientUnits="userSpaceOnUse"><stop offset="0"/><stop offset="0.09" stop-color="#070508"/><stop offset="0.35" stop-color="#18101a"/><stop offset="0.62" stop-color="#231725"/><stop offset="0.93" stop-color="#261928"/></linearGradient><linearGradient id="Gradiente_sem_nome_87" x1="415.33" y1="300.42" x2="615.16" y2="-21.62" gradientTransform="translate(-41.2 104.72) rotate(-8.75)" gradientUnits="userSpaceOnUse"><stop offset="0"/><stop offset="0.07" stop-color="#070508"/><stop offset="0.27" stop-color="#18101a"/><stop offset="0.48" stop-color="#231725"/><stop offset="0.72" stop-color="#261928"/></linearGradient><clipPath id="clip-path"><path class="cls-1" d="M548,569.64c27.84,5.49,84.87,61.47,84.87,61.47l32.35,8.62-5,32.29-32.77-4.64s-89.6,9-125.64-25.16l-11.14-3-3.45-16S494.88,559.18,548,569.64Z"/></clipPath><linearGradient id="Gradiente_sem_nome_14" x1="820.15" y1="837.42" x2="620.08" y2="477.65" gradientTransform="translate(-3.52 5.85) rotate(-0.29)" gradientUnits="userSpaceOnUse"><stop offset="0.09" stop-color="#1b141f"/><stop offset="0.44" stop-color="#301e3d"/><stop offset="0.8" stop-color="#492960"/></linearGradient><linearGradient id="Gradiente_sem_nome_13" x1="478.03" y1="584.75" x2="478.03" y2="426.09" gradientTransform="translate(-97.19 173.45) rotate(-15.9)" gradientUnits="userSpaceOnUse"><stop offset="0.33" stop-color="#492960"/><stop offset="0.46" stop-color="#442759"/><stop offset="0.65" stop-color="#372147"/><stop offset="0.87" stop-color="#221729"/><stop offset="0.93" stop-color="#1b141f"/></linearGradient><linearGradient id="Gradiente_sem_nome_36" x1="477.56" y1="731.02" x2="477.56" y2="536.26" gradientTransform="translate(1041.14 256.74) rotate(109.75)" gradientUnits="userSpaceOnUse"><stop offset="0.33" stop-color="#8e46b9"/><stop offset="0.43" stop-color="#8945b2"/><stop offset="0.58" stop-color="#7c41a0"/><stop offset="0.75" stop-color="#673b82"/><stop offset="0.94" stop-color="#493358"/><stop offset="1" stop-color="#3f3049"/></linearGradient><clipPath id="clip-path-2"><path class="cls-2" d="M249.28,431.2c-7.89-27.26-78.77-85.91-78.77-85.91l-9.12-24.05-23.86,7.09L145,360.57s5.18,85.81,37,120.26l3,13.55,16.19,2.05S264.32,483.2,249.28,431.2Z"/></clipPath><linearGradient id="Gradiente_sem_nome_9" x1="212.75" y1="541.92" x2="7" y2="448.75" gradientUnits="userSpaceOnUse"><stop offset="0.23" stop-color="#8e46b9"/><stop offset="0.28" stop-color="#8544ad"/><stop offset="0.42" stop-color="#6c3d89"/><stop offset="0.56" stop-color="#58376d"/><stop offset="0.71" stop-color="#4a3359"/><stop offset="0.85" stop-color="#42314d"/><stop offset="1" stop-color="#3f3049"/></linearGradient><clipPath id="clip-path-3"><path class="cls-2" d="M231.4,752.61C201.13,812,257.07,909.09,308,935.07s109-59.84,134.87-121.24c27.68-65.73-3.52-126.65-54.43-152.63S261.68,693.26,231.4,752.61Z"/></clipPath><clipPath id="clip-path-4"><path class="cls-2" d="M611.93,801.46c1.14,66.61-91.79,129.31-148.94,130.29S391.33,830.11,395.07,763.6c4-71.22,58.8-112.24,116-113.22S610.79,734.85,611.93,801.46Z"/></clipPath><linearGradient id="Gradiente_sem_nome_4" x1="505.47" y1="810.46" x2="505.47" y2="536.2" gradientTransform="translate(-212.98 336.29) rotate(-29.26)" gradientUnits="userSpaceOnUse"><stop offset="0" stop-color="#8e46b9"/><stop offset="0.12" stop-color="#8945b2"/><stop offset="0.29" stop-color="#7c41a0"/><stop offset="0.49" stop-color="#673b82"/><stop offset="0.71" stop-color="#493358"/><stop offset="0.78" stop-color="#3f3049"/></linearGradient><linearGradient id="Gradiente_sem_nome_4-2" x1="3566.87" y1="914.85" x2="3566.87" y2="650.95" gradientTransform="matrix(-0.94, -0.33, -0.33, 0.94, 3912.97, 1178.72)" xlink:href="#Gradiente_sem_nome_4"/><linearGradient id="Gradiente_sem_nome_28" x1="383.62" y1="581.6" x2="383.62" y2="678.35" gradientTransform="matrix(0.98, -0.18, 0.18, 0.98, -82.96, 101.6)" gradientUnits="userSpaceOnUse"><stop offset="0.08" stop-color="#282828"/><stop offset="0.19" stop-color="#333"/><stop offset="0.41" stop-color="#454545"/><stop offset="0.57" stop-color="#4c4b4c"/></linearGradient><linearGradient id="Gradiente_sem_nome_94" x1="320.34" y1="616.92" x2="320.34" y2="479.25" gradientTransform="matrix(0.98, -0.18, 0.18, 0.98, -82.96, 101.6)" gradientUnits="userSpaceOnUse"><stop offset="0" stop-color="#282828"/><stop offset="0.12" stop-color="#686868"/><stop offset="0.23" stop-color="#9e9e9e"/><stop offset="0.34" stop-color="#c8c8c8"/><stop offset="0.44" stop-color="#e6e6e6"/><stop offset="0.52" stop-color="#f8f8f8"/><stop offset="0.58" stop-color="#fff"/></linearGradient><linearGradient id="Gradiente_sem_nome_94-2" x1="433.87" y1="619.88" x2="433.87" y2="476.78" xlink:href="#Gradiente_sem_nome_94"/><linearGradient id="Gradiente_sem_nome_26" x1="379.93" y1="692.94" x2="379.93" y2="432.3" gradientTransform="matrix(0.98, -0.18, 0.18, 0.98, -82.96, 101.6)" gradientUnits="userSpaceOnUse"><stop offset="0.15" stop-color="#3f3049"/><stop offset="0.35" stop-color="#58376c"/><stop offset="0.76" stop-color="#8e46b9"/><stop offset="0.8" stop-color="#8b45b5"/><stop offset="0.84" stop-color="#8242a9"/><stop offset="0.88" stop-color="#743c96"/><stop offset="0.92" stop-color="#60347b"/><stop offset="0.96" stop-color="#462a58"/><stop offset="1" stop-color="#261e2d"/></linearGradient><clipPath id="clip-path-5"><path class="cls-3" d="M312.78,365.07c16.17-3,27.05,7.2,31.18,14.61,1.56,2.8,1.78,20.07,1.78,20.07s-25.65-9.48-33.73-12.37C299.05,382.75,306.88,366.17,312.78,365.07Z"/></clipPath><clipPath id="clip-path-6"><path class="cls-4" d="M426.67,387.6c-13.74-9.05-39.87-10.47-49-1.8-2.32,2.2-10.6,19.16-10.6,19.16s37.39.24,50,2.84C428.68,410.18,431.68,390.9,426.67,387.6Z"/></clipPath></defs><g id="Camada_2" data-name="Camada 2"><path class="cls-5" d="M251.46,282.56a14.45,14.45,0,0,1-2.71-.05,6.91,6.91,0,0,1,1.51-13.74c.57.07,2.05-.65,3.7-2.91a27,27,0,0,0,4.36-12.53c1.11-10.05-2.58-16.63-4.5-16.84a6.91,6.91,0,1,1,1.51-13.73c11.41,1.25,18.6,15.05,16.73,32.08A40.54,40.54,0,0,1,265.13,274C261.38,279.15,256.51,282.17,251.46,282.56Z"/><path class="cls-6" d="M226.82,308.68a18.33,18.33,0,0,1-2.39-2.51,8.84,8.84,0,0,1,13.9-10.92c.44.58,2.43,1.29,6,.77,4.8-.71,10.4-3.36,15.35-7.25,10.15-8,12.85-17.24,11.32-19.18a8.84,8.84,0,0,1,13.9-10.92c9.07,11.53,2.92,30.45-14.3,44-7.4,5.82-15.81,9.67-23.68,10.83C238.82,314.69,231.7,313,226.82,308.68Z"/><polygon class="cls-7" points="298.61 330.12 230.73 200.94 274.18 74.48 244.05 0 415.05 54.61 455.19 234.27 398.77 345.99 298.61 330.12"/><polygon class="cls-8" points="274.57 32.2 362.94 74.42 396.55 224.16 377.01 220.88 392.14 231.02 381.4 236.82 395.35 237.8 369.06 306.67 314.27 308.07 254.58 193.04 301.76 83.16 281.9 56.49 296.68 58.97 274.57 32.2"/><path class="cls-9" d="M250.05,282.53a7.07,7.07,0,0,1-1.3,0c-6-.66-11.14-5-14.14-11.88A43.38,43.38,0,0,1,239,231.28c4.41-6.08,10.4-9.18,16.38-8.52a6.91,6.91,0,1,1-1.51,13.73c-.57-.06-2,.65-3.69,2.91a29.71,29.71,0,0,0-2.84,25.73c1.11,2.56,2.38,3.58,3,3.64a6.91,6.91,0,0,1-.21,13.76Z"/><path class="cls-10" d="M225.57,307.37a8.09,8.09,0,0,1-1.13-1.2c-4.77-6.06-5.43-14.64-1.83-23.53,3-7.37,8.72-14.63,16.12-20.46s15.82-9.67,23.68-10.83c9.5-1.41,17.69,1.27,22.45,7.32A8.84,8.84,0,0,1,271,269.59c-.44-.58-2.42-1.29-6-.77-4.8.72-10.39,3.36-15.34,7.25s-8.84,8.71-10.67,13.21c-1.34,3.3-1.14,5.38-.67,6a8.83,8.83,0,0,1-12.75,12.12Z"/><path class="cls-5" d="M601.31,289.26a14.91,14.91,0,0,0,1.63-2.16,6.91,6.91,0,1,0-11.76-7.25c-.3.49-1.78,1.22-4.57,1.12A26.94,26.94,0,0,1,574,276.71c-8.6-5.3-11.52-12.26-10.51-13.9a6.91,6.91,0,0,0-11.77-7.25c-6,9.77.44,23.92,15,32.91a40.36,40.36,0,0,0,19.36,6.31C592.52,295,597.9,293,601.31,289.26Z"/><path class="cls-6" d="M586.55,353.43A20.67,20.67,0,0,0,589.6,351a10,10,0,1,0-14-14.31c-.59.58-2.92,1.09-6.82,0-5.3-1.51-11.21-5.3-16.21-10.4C542.29,315.76,540.6,305,542.6,303a10,10,0,1,0-14-14.32c-11.89,11.66-7.74,33.83,9.65,51.59,7.48,7.63,16.38,13.19,25.06,15.65C572.18,358.43,580.44,357.51,586.55,353.43Z"/><polygon class="cls-11" points="392.19 337.63 360.53 195.18 435.58 84.52 426.02 4.75 576.74 102.25 568.42 286.15 484.7 379.19 392.19 337.63"/><path class="cls-9" d="M602.16,288.13a6.64,6.64,0,0,0,.78-1c3.17-5.13,2.92-11.86-.68-18.45a43.36,43.36,0,0,0-33.71-20.78c-7.5-.25-13.62,2.57-16.79,7.69a6.91,6.91,0,1,0,11.77,7.25c.29-.49,1.77-1.22,4.56-1.13a29.72,29.72,0,0,1,22,13.59c1.33,2.44,1.36,4.07,1,4.58a6.91,6.91,0,0,0,11,8.28Z"/><polygon class="cls-8" points="389.98 215.84 399.36 299.7 461.44 330.05 529.89 246.94 531.47 116.35 451.64 52.8 453.65 89.33 464.94 87.59 454.56 96.41 398.38 201.82 414.38 203.69 396.45 212.13 399.82 223.53 389.98 215.84"/><path class="cls-10" d="M588.14,352.14A10.78,10.78,0,0,0,589.6,351c6.25-6.13,8.25-15.68,5.49-26.22C592.8,316,587.43,307,580,299.38s-16.38-13.2-25.06-15.66c-10.48-3-20.08-1.15-26.32,4.95a10,10,0,0,0,14,14.32c.59-.58,2.92-1.09,6.82,0,5.3,1.51,11.21,5.3,16.21,10.4s8.67,11.09,10.07,16.42c1,3.91.49,6.22-.13,6.81a10,10,0,0,0,12.57,15.51Z"/><polygon class="cls-2" points="280.87 438.55 268.53 377.9 302.71 318.54 297.92 280.89 373.41 277.55 419.85 254.42 453.48 301.61 501.57 300.63 516.79 359.98 473.34 419.75 474.24 449.15 425.46 463.89 423.81 424.45 334.5 410.74 280.87 438.55"/><path class="cls-2" d="M483.17,286.91c-5.27,8.73-28.53,9.44-28.53,9.44s-8.17-21.79-2.1-30c7.47-10.06,20.46-2.14,15.8,9.54C477.38,267.17,489.48,276.46,483.17,286.91Z"/><polygon class="cls-12" points="792.9 624.42 619.01 747.35 692.77 936.48 823.52 1057.85 968.29 654.94 792.9 624.42"/><polygon points="707.71 689.93 732.8 691.17 746.4 731.61 762.96 734.77 755.29 684.38 758.9 675.23 701.48 670.95 707.71 689.93"/><polygon class="cls-13" points="756.7 691.21 759.69 712.46 677.48 811.17 778.43 723.97 756.7 691.21"/><path class="cls-1" d="M548,569.64c27.84,5.49,84.87,61.47,84.87,61.47l32.35,8.62-5,32.29-32.77-4.64s-89.6,9-125.64-25.16l-11.14-3-3.45-16S494.88,559.18,548,569.64Z"/><g class="cls-14"><polygon points="614.58 624.77 635.67 638.77 593.02 624.91 620.1 639.09 588.21 639.76 617.31 648.72 540.05 642.24 611.11 660.25 590.77 662.75 643.65 676.01 657.55 630.31 614.58 624.77"/><path class="cls-15" d="M668.8,640l-35.22-17.95,14,18.32-17.7-6,16.31,8.23-22.07-3.44,27.21,9.28-37.88-4.62,33.1,11.63s-28.7-3.21-28.17-3.1S645,659.93,645,659.93l-21.45-.39,23.24,5.7-25.93,10.33,44.15.86Z"/><path d="M613.7,612.24l-54.63-8.63L574,611.36l-46.7,3.35,65.33,17.06-51.42.69L591,643.08,517.6,638l47,15-19.45,2.23,20.52,12.41c-26.77-.7-50.28-9.13-70.46-25.45l34.07,6.18-39.38-20.64L534.19,633l-28.5-10.1,45.62,4.27-54.85-18.29,52-2.57s-33-20.56-32.49-20.44,79.86,8.92,79.86,8.92Z"/></g><path class="cls-15" d="M654.4,670.13l26.47,24.58,29.57-5.18,2-38.71s-54.75-13.8-54.55-13.18S654.4,670.13,654.4,670.13Z"/><polygon points="690.66 646.14 695.39 635.11 708.33 639.13 845.88 579.4 846.55 594.16 954.57 674.73 936.32 682.4 835.84 613.54 704.86 660.4 690.66 646.14"/><polygon class="cls-16" points="932.74 668.76 916.23 834.71 970.6 657.4 917.03 626.77 932.74 668.76"/><polygon points="696.44 652.98 832.43 616.96 832.48 627.5 885.57 677.17 870.88 698.3 818.19 645.79 703.68 670.75 696.44 652.98"/><polygon class="cls-17" points="860.39 658.25 874.54 674.38 859.92 802.01 896.52 673.73 860.39 658.25"/><polygon points="708.11 678.51 797.04 664.67 815.6 722.22 838.93 731.46 810.88 649.8 707.15 663.05 708.11 678.51"/><polygon class="cls-17" points="826.02 684.12 830.82 705.03 757.37 810.43 850.48 714.89 826.02 684.12"/><polygon points="659.37 660.83 663.43 699.47 683.33 707.55 687.17 666.5 659.37 660.83"/><polygon class="cls-16" points="668.77 663.58 665.71 684.82 747.62 783.79 646.94 696.27 668.77 663.58"/><polygon class="cls-18" points="528.52 557.1 566.71 567.75 633.58 622.09 695.53 624.91 840.79 567.08 968.29 654.94 791.14 698.3 692.77 936.48 569.08 753.32 443.26 614.24 528.52 557.1"/><polygon class="cls-19" points="968.29 654.94 792.25 707.22 697.7 941.06 692.77 936.48 674.55 909.49 768.56 680.22 947.48 634.34 968.29 654.94"/><polygon class="cls-19" points="695.53 624.91 651.3 648.5 593.78 789.9 572.51 758.4 620.1 639.09 656.99 623.15 695.53 624.91"/><path class="cls-20" d="M382.46,612.17c55.59,2.52,198.3-155.36,18.53-155.36C251.11,456.81,326.88,609.64,382.46,612.17Z"/><path class="cls-2" d="M542,498.81a40.39,40.39,0,0,0-48-30.89c-54.33,11.82-39.49,77.2-28.49,101,8.74,18.92,36.11,37.3,36.11,37.3l47.05-13.09c4.65-16.67,2.25-49.57-10.15-67.31A40.25,40.25,0,0,0,542,498.81Z"/><polygon class="cls-21" points="482.86 616.25 440.49 521.97 450.44 460.51 517.99 460.78 548.75 490.4 553.13 524.03 552.49 588.22 482.86 616.25"/><path class="cls-2" d="M334.36,451.94a40.38,40.38,0,0,1,27.41,50.11C346.14,555.41,282,536,259,523.32c-18.26-10.05-32.82-35.14-32.82-35.14l14.56-49.52c17-3.46,49.61,1.27,66.42,14.89A40.24,40.24,0,0,1,334.36,451.94Z"/><polygon class="cls-22" points="372.71 531.56 365.45 456.73 336.75 438.46 293.86 440.69 239.61 428.61 168.6 523.72 257.45 553.33 324.58 548.41 372.71 531.56"/><polygon class="cls-12" points="147.49 483.38 13.62 553.67 7.15 520.65 119.23 444.57 133.53 370.36 180.51 344.82 147.49 483.38"/><path class="cls-2" d="M249.28,431.2c-7.89-27.26-78.77-85.91-78.77-85.91l-9.12-24.05-23.86,7.09L145,360.57s5.18,85.81,37,120.26l3,13.55,16.19,2.05S264.32,483.2,249.28,431.2Z"/><g class="cls-23"><rect class="cls-15" x="116.94" y="306.5" width="93.26" height="69.95" transform="translate(446.28 593.32) rotate(157.29)"/><rect class="cls-15" x="138.44" y="396.61" width="100.39" height="24.61" transform="translate(520.5 713.3) rotate(157.29)"/></g><path class="cls-15" d="M144.93,334.79l-23.57-9.52-3.31-10.92,17.58-18s26.32,25.25,25.91,25.35S144.93,334.79,144.93,334.79Z"/><polygon class="cls-15" points="141.85 302.57 122.88 279.78 113.97 281.15 114.21 285.76 129.04 306.25 141.85 302.57"/><polygon class="cls-15" points="131.49 304.25 106.64 280.93 95.58 284.85 98.13 288.76 91.83 296.42 91.75 301.08 120.6 314.13 131.49 304.25"/><polygon class="cls-15" points="124.17 314.04 99.15 308.68 94.55 312.57 92.7 317.48 121.36 325.27 124.17 314.04"/><polygon class="cls-15" points="146.9 312 146.38 295.66 152.77 286.47 161.7 290.04 158.9 295.91 162.73 313.27 161.54 321.75 146.9 312"/><polygon class="cls-24" points="255.87 437.61 229.87 388.4 190.04 356.23 148.68 485.67 20.77 571.12 94.1 663.6 186.21 631.97 242.13 556.14 255.87 437.61"/><polygon class="cls-25" points="196.5 361.44 180.51 344.82 131.83 466.36 0 556.74 16.68 560.82 17.7 579.89 161.79 491.89 196.5 361.44"/><polygon class="cls-25" points="59.06 637.84 179.49 525.93 229.87 388.4 235.7 399.43 201.62 547.04 95.06 668.74 78.72 657.5 75.66 641.67 59.06 637.84"/><polygon points="147.91 307.63 147.57 312.45 149.79 317.84 146.55 312.99 147.91 307.63"/><polygon points="123.75 313.95 127.96 301.5 136.51 299.89 129.45 302.19 123.75 313.95"/><path class="cls-20" d="M394.6,590.25c74.06-17.12,252.36,144,43.49,182.39C263.14,804.8,320.55,607.38,394.6,590.25Z"/><polygon class="cls-8" points="497.39 938.43 521.03 952.45 485.3 1020.26 472.68 974.25 497.39 938.43"/><polygon class="cls-8" points="348.75 820.29 504.22 943.86 478.92 981.27 343.46 943.96 288.37 910.43 348.75 820.29"/><polygon class="cls-2" points="360.48 823.21 433.42 870.81 391.54 872.22 422.2 891.22 364.83 914.9 374.82 961.29 350.82 938.17 342 969.69 297.29 920.5 360.48 823.21"/><polygon class="cls-8" points="546.89 1062.12 560.61 1089.69 585.88 1087.36 610.07 1059.84 588.04 1038.54 546.89 1062.12"/><polygon class="cls-8" points="437.01 909.26 552.4 1070.88 595.01 1045.16 565.46 905.69 530.13 853.6 437.01 909.26"/><polygon class="cls-2" points="542.34 866.03 578.75 911.17 549.6 905 573.36 942.99 514.36 930.86 525.61 973.67 485.33 950.46 482.33 995.21 443.77 923.03 542.34 866.03"/><circle cx="380.85" cy="724.16" r="104.21"/><path class="cls-2" d="M231.4,752.61C201.13,812,257.07,909.09,308,935.07s109-59.84,134.87-121.24c27.68-65.73-3.52-126.65-54.43-152.63S261.68,693.26,231.4,752.61Z"/><g class="cls-26"><path d="M430.89,853c-39-70.28-105.78-119.76-195.35-152.28l96.88-124.29L527.77,728.69Z"/></g><polygon points="271.51 897.87 260.35 877.54 292.98 883.08 327.57 913.64 306 916.66 341.07 920.93 299.03 865.73 252.89 872.53 271.51 897.87"/><polygon points="310.24 907.96 285.11 906.85 273.8 891.62 286.56 904.29 310.24 907.96"/><circle cx="498.01" cy="710.14" r="104.21"/><path class="cls-2" d="M611.93,801.46c1.14,66.61-91.79,129.31-148.94,130.29S391.33,830.11,395.07,763.6c4-71.22,58.8-112.24,116-113.22S610.79,734.85,611.93,801.46Z"/><g class="cls-27"><path d="M635.45,752.9c-110-14.14-202.6-11.52-244.51,39.63L365.73,637l244.51-39.62Z"/></g><polygon points="441.69 907.3 422.29 894.61 453.7 884.17 498.59 894.91 480.96 907.7 513.94 895.01 450.89 866.01 413.36 893.69 441.69 907.3"/><polygon points="480.62 898.03 457.92 908.86 440.78 900.72 458 905.91 480.62 898.03"/><path class="cls-15" d="M486.14,685.71s-59,20.69-83,51.32C403.17,737,419.76,701,486.14,685.71Z"/><path class="cls-15" d="M397.23,783.5s1.15-32.55,3.58-42.12C400.81,741.38,392.38,763.46,397.23,783.5Z"/><polygon class="cls-28" points="430.59 626.13 498.05 628.82 570.9 676.8 631.46 792.19 623.77 620.39 595.84 586.95 564.15 565.44 536.07 568.88 505.84 573.37 478.62 563.44 430.59 626.13"/><polygon class="cls-25" points="623.08 767.02 572.16 668.2 494.4 608.27 465.17 606.36 430.59 626.13 496.66 630.44 574.42 690.38 633.75 803.58 623.77 620.39 614.49 609.28 623.08 767.02"/><polygon class="cls-29" points="400.24 683.86 334.32 698.4 270.58 739.8 234.51 872.7 209.07 712.26 230.68 674.42 258.08 647.66 286.32 646.1 316.87 645.19 341.91 630.62 400.24 683.86"/><polygon class="cls-25" points="235.6 856.47 269.52 729.24 334.28 677.53 362.72 670.5 400.25 683.86 335.97 699.75 271.21 751.46 231.55 894.35 209.07 712.26 216.25 699.69 235.6 856.47"/><path class="cls-8" d="M337.72,678.68s-10.52,1-14.67,8.24c0,0,10.08-1.44,12.21,1.68,0,0-8.18,6.83-2.56,17.49,0,0,5.61-9.23,13-7.2,0,0,2.72,9.05,8.36,10.67,0,0-1.95-10.7,5.79-13.31Z"/><path class="cls-8" d="M484.21,653.44s9.82-3.9,16.81.63c0,0-9.62,3.32-10.09,7.07,0,0,10.39,2.34,10.27,14.38,0,0-9.2-5.64-14.86-.46,0,0,1.72,9.29-2.55,13.31,0,0-3.16-10.41-11.23-9.19Z"/><path class="cls-30" d="M474.4,627c30.77,49.91-12.14,70.22-63.47,71.13-41.08,18.21-86.08-3.82-73.34-46-2.68-36.15,33-42.54,59.66-47.44C426.45,599.3,464,592.22,474.4,627Z"/><path class="cls-31" d="M318.77,515s74.37,1.69,84.13,52.65c16.86,88.06-126.47,117.85-141.23,41.87C251.84,558.89,299.88,553.23,318.77,515Z"/><path class="cls-32" d="M454.31,487.6s-95.72,35.15-85.71,86c18.25,92.87,167.21,72.63,148.18-24.71C510.55,517.06,476.24,517.44,454.31,487.6Z"/><polygon class="cls-33" points="392.24 453.79 333.44 470.16 310.44 504.87 310.15 523.07 262.98 563.22 257.67 609.64 311.6 726.82 298.15 619.62 385.09 632.66 471.73 577.91 507.87 697.54 526.61 559.65 506.13 519.33 462.6 491.77 462.51 475.46 449.83 453.85 392.24 453.79"/><polygon class="cls-25" points="284.93 668.88 311.6 726.82 298.15 619.62 385.09 632.66 471.73 577.91 507.87 697.54 517.18 629.04 505.74 661.28 483.17 560.2 382.59 626.95 285.47 601.99 300.43 693.22 284.93 668.88"/><path class="cls-2" d="M420.8,645.93s-16.69,5.27-19.71,8.64C395.74,652,382,653.19,382,653.19s13.31-4.12,18-1.68C404.14,647.52,420.8,645.93,420.8,645.93Z"/><circle class="cls-10" cx="399.99" cy="658.08" r="4.22"/><circle class="cls-10" cx="399.67" cy="650.41" r="1.87"/><polygon points="460.61 660.21 462.6 636.64 440.06 645.68 460.61 660.21"/><text class="cls-34" transform="translate(449.93 653.44) rotate(-25.49)">D</text><text class="cls-34" transform="translate(455.18 654.47) rotate(-25.49)">L</text><polygon points="437.75 646.16 442.96 654.1 433.27 655.23 437.75 646.16"/><polygon points="434.63 640.86 434.55 646.4 429.51 643.77 434.63 640.86"/><polygon points="467.57 657.38 463.77 648.68 473.51 649.21 467.57 657.38"/><polygon points="471.68 661.45 473.27 656.15 477.4 660.05 471.68 661.45"/><path class="cls-25" d="M387.66,587c.5-28.33,8.9-53.58,26.3-75.32C389.16,532.64,380.91,557.88,387.66,587Z"/><polygon class="cls-2" points="374.77 482.03 358.71 468.65 368.08 469.18 352.1 456.21 366.2 458.21 357.37 439.21 427.5 439.21 419.73 454.73 431.51 452.32 419.2 467.58 430.98 467.31 382.26 500.77 386.01 488.45 379.32 491.94 374.77 482.03"/><polygon points="280.87 438.55 308.77 425.7 424.03 431.83 425.46 463.89 454.71 415.09 441.88 341.51 365.07 357.74 312.86 320.58 268.82 369.23 280.87 438.55"/><path class="cls-15" d="M301.29,391.06s-8.67-6-16.51-3.22c0,0,8.61,5.44,8.21,9.19,0,0-10.65-.1-13.28,11.66,0,0,10.25-3.39,14.57,2.94,0,0-3.79,8.65-.55,13.54,0,0,5.45-9.41,13-6.38Z"/><path class="cls-15" d="M365.07,357.73s62.17-24.1,73.14,12.28c5.93,19.68-9,47.71-9,47.71C397.63,480,291.81,452,293.55,390.37l11.37-13.27s.92-23.31,6.82-32.86C328.59,316.94,365.07,357.73,365.07,357.73Z"/><path class="cls-35" d="M343.86,415.84l-16.71-11,4.8,1-14.52-11s22.82-5.09,31.54,4.86a8.19,8.19,0,0,1,1.7-9l3.85,9.7,12-6s-1.67,7.86-5.16,8.25c0,0,22.82.05,28.95,8.93L370,413.1l7.55,2.88Z"/><path class="cls-20" d="M411.83,426.15c-1.08,4.93-9.62,9.67-9.62,9.67s-5.21-8.26-3.78-13.1c1.76-6,7.36-4.85,6.81,1.3C407.71,418.36,413.12,420.25,411.83,426.15Z"/><path class="cls-20" d="M301.62,404.92c-.5,4.7,3.83,11.34,3.83,11.34s5.33-5.87,5.59-10.58c.31-5.8-3.55-6.42-4.68-.79C306.14,399.16,302.22,399.3,301.62,404.92Z"/><path class="cls-3" d="M312.78,365.07c16.17-3,27.05,7.2,31.18,14.61,1.56,2.8,1.78,20.07,1.78,20.07s-25.65-9.48-33.73-12.37C299.05,382.75,306.88,366.17,312.78,365.07Z"/><g class="cls-36"><ellipse cx="332.32" cy="384.72" rx="25.83" ry="17.93" transform="translate(-110.51 634.43) rotate(-78.6)"/><ellipse class="cls-37" cx="331.68" cy="385.02" rx="19.79" ry="10.95" transform="translate(-111.32 634.04) rotate(-78.6)"/><ellipse class="cls-37" cx="329.17" cy="384.52" rx="30.46" ry="16.86" transform="translate(-112.83 631.18) rotate(-78.6)"/><ellipse class="cls-15" cx="334.24" cy="385.55" rx="13.51" ry="2.66" transform="matrix(0.2, -0.98, 0.98, 0.2, -109.78, 636.98)"/></g><path class="cls-4" d="M426.67,387.6c-13.74-9.05-39.87-10.47-49-1.8-2.32,2.2-10.6,19.16-10.6,19.16s37.39.24,50,2.84C428.68,410.18,431.68,390.9,426.67,387.6Z"/><g class="cls-38"><ellipse cx="398.67" cy="398.05" rx="25.83" ry="17.93" transform="translate(-70.34 710.17) rotate(-78.6)"/><ellipse class="cls-37" cx="398.67" cy="398.35" rx="19.36" ry="10.95" transform="translate(-70.63 710.41) rotate(-78.6)"/><ellipse class="cls-37" cx="398.67" cy="399.07" rx="33.04" ry="22.25" transform="translate(-71.34 710.99) rotate(-78.6)"/><ellipse class="cls-15" cx="398.67" cy="398.03" rx="13.51" ry="3.19" transform="translate(-70.32 710.15) rotate(-78.6)"/></g><path class="cls-39" d="M346.13,419.49s-15.33-8.36-8.83-10.85A9.71,9.71,0,0,1,348,411.1a12.24,12.24,0,0,1,12.16,2C366.46,418.38,346.13,419.49,346.13,419.49Z"/><path class="cls-39" d="M345.66,432s-14.78-6.83,1.15-9.95c14.25-2.79,27.05,8.22,32.36-.13,0,0,7.34,24.7-4,27.13C358.45,452.6,345.66,432,345.66,432Z"/><path d="M345.28,431.76c6.81-.62,8.82-1,10.23-3.47,0,0,12.51,2.9,24.67-8.14,0,0,3.75,15-5.61,22.44S345.28,431.76,345.28,431.76Z"/><path class="cls-15" d="M352.53,433.4l4.68,2.55L378.15,431l-.26-5.62C370.56,430.34,362.52,432.53,352.53,433.4Z"/><path class="cls-15" d="M377.76,432.42s-1,6.05-4.51,7.83-5.61-5.32-5.61-5.32Z"/><path class="cls-15" d="M423.81,415.77s10.34-2.2,16.48,3.43c0,0-10.05,1.67-11.14,5.29,0,0,9.86,4,7.73,15.9,0,0-8.14-7.1-14.57-2.94,0,0,.14,9.45-4.75,12.69,0,0-1.37-10.79-9.53-10.93Z"/><path d="M428.76,370s-2.36-10.86-27.42-8.45C401.34,361.58,427.12,351.9,428.76,370Z"/><path d="M314.33,347s6.38-9.09,28.55,2.85C342.88,349.8,322.87,330.87,314.33,347Z"/><circle class="cls-40" cx="419.63" cy="415.62" r="4.02"/><circle class="cls-40" cx="411.88" cy="416.91" r="2.75"/><polygon class="cls-39" points="363.95 337.99 365.07 357.74 313.44 327.16 272.31 379.48 280.87 438.55 257.25 372.9 289.09 323.34 297.92 280.89 353.47 342.61 363.95 337.99"/><polygon class="cls-39" points="372.49 339.89 365.07 357.74 431.62 350.45 448.34 415.99 425.46 463.89 464.77 415.75 455.54 356.37 468.31 315.16 380.35 348.59 372.49 339.89"/></g></svg>